<?xml version="1.0" encoding="utf-8"?>
<!-- Generator: Adobe Illustrator 20.0.0, SVG Export Plug-In . SVG Version: 6.00 Build 0)  -->
<svg version="1.1" id="Layer_1" xmlns="http://www.w3.org/2000/svg" xmlns:xlink="http://www.w3.org/1999/xlink" x="0px" y="0px"
	 width="512px" height="120px" viewBox="0 0 512 120" style="enable-background:new 0 0 512 120;" xml:space="preserve">
<style type="text/css">
	.st0{fill:#222222;}
	.st1{fill:#F26123;}
</style>
<circle class="st0" cx="257.9" cy="16.2" r="10.4"/>
<path class="st0" d="M144.3,10.1h19.2v32.5c0,0,10.5-8.2,29.8-8.2c24.6,0,43.2,15.3,43.2,36.4c0,26.3-22.9,39.6-48.9,39.6
	c-27.6,0-43.4-9.3-43.4-9.3V10.1z M217.2,70.9c0-13.4-12.4-20.1-26.7-20.1c-18.1,0-27.4,10-27.4,10v27.8c0,0,9,5.4,24.6,5.4
	C201.4,94.1,217.2,87.4,217.2,70.9z"/>
<path class="st0" d="M343.4,52.2c-32.2,0-42.2,15.8-42.2,15.8v41h-19.2V35.9h19.2v14c0,0,13.1-14,42.2-14V52.2z"/>
<path class="st0" d="M387.3,79.9c-15.5,0-36.6-3.2-36.6-22.2c0-15.8,16.4-23.3,38.6-23.3c24.9,0,42,7.5,42,7.5l-6.2,14.6
	c0,0-16.4-5.7-35.5-5.7c-15.4,0-19.6,2.5-19.6,6.6c0,4.7,5.7,6.1,17,6.1h14.5c17.7,0,33.5,4.9,33.5,22.3c0,17.9-18.2,24.7-40.7,24.7
	c-30.2,0-46.8-8.9-46.8-8.9l8.1-15c0,0,15.4,7.3,38.6,7.3c15.4,0,21.6-2.4,21.6-7.5c0-4-3-6.6-13.8-6.6H387.3z"/>
<path class="st0" d="M507.1,35.9v16.4h-31.5v30.5c0,7.2,3.7,11.3,14.3,11.3c10.2,0,18.6-2.8,18.6-2.8l3.5,15.4c0,0-8.8,3.8-23.4,3.8
	c-25.4,0-32.2-12.9-32.2-27.7V52.2h-18.7V35.9h18.7V10.1h19.2v25.7H507.1z"/>
<path class="st1" d="M98.2,74.8c-1.8-0.2-3.6,0.1-5.2,0.8c-0.1,0-0.2,0.1-0.3,0.1c-0.5,0.3-1,0.5-1.6,0.7
	c-6.3,2.7-13.4,2.8-19.7,0.2c-6-2.4-10.8-6.9-13.5-12.7c6.2,3.9,13.5,5.2,20.8,4.2c8.1-1.1,15-5.2,20.2-11.5c5.2-6.2,8-13.7,8-21.3
	c0-3.3-1.9-6.8-4.4-8.5c-2.3-1.6-4.7-2.3-7.3-1.9c-2.6,0.4-4.9,1.7-6.5,3.8c-1.1,1.4-1.7,3.1-1.9,4.9c0,0.1,0,0.2,0,0.3
	c0,0.6-0.1,1.1-0.2,1.7c-0.8,6.8-4.3,12.9-9.7,17.2C72,56.8,66,58.6,59.9,58.3c6.5-3.4,11.3-9,14.1-15.9c3.1-7.6,3-15.6,0.2-23.3
	c-2.8-7.6-7.8-13.8-14.4-17.6c-2.9-1.7-6.8-1.8-9.5-0.4c-2.5,1.2-4.3,2.9-5.3,5.4c-1,2.4-1,5.1,0.1,7.5c0.7,1.6,1.8,3.1,3.3,4.1
	c0.1,0.1,0.2,0.1,0.3,0.2c0.5,0.3,0.9,0.6,1.4,1c5.5,4.1,9.1,10.2,10,17c0.9,6.7-0.7,13.3-4.7,18.7c0.7-7.8-1.8-15.2-6.7-21.4
	c-5-6.5-12-10.4-20.1-11.8c-7.9-1.4-15.8-0.1-22.4,3.7c-2.9,1.7-4.9,5-5.1,8c-0.2,2.8,0.4,5.2,2,7.3c1.6,2.1,4,3.4,6.6,3.7
	c1.8,0.2,3.6-0.1,5.2-0.8c0.1,0,0.2-0.1,0.3-0.1c0.5-0.2,1-0.5,1.6-0.7c6.3-2.7,13.4-2.7,19.7-0.2c6.2,2.5,11.1,7.3,13.9,13.4
	c-6.4-4.5-14.1-6-21.9-4.9c-8.1,1.1-15,5.2-20.2,11.5C2.9,68.9,0,76.4,0,84c0,3.3,1.8,6.8,4.4,8.5c2.3,1.6,4.7,2.3,7.3,1.9
	c2.6-0.4,4.9-1.7,6.5-3.8c1.1-1.4,1.7-3.1,1.9-4.9c0-0.1,0-0.2,0-0.3c0-0.6,0.1-1.1,0.2-1.7c0.8-6.8,4.3-12.9,9.7-17.2
	c5.4-4.2,12.2-6.1,19-5.3c0.1,0,0.2,0,0.2,0c-7.1,3.3-12.3,9.2-15.2,16.5c-3.1,7.6-3,15.6-0.2,23.3c2.8,7.6,7.8,13.8,14.4,17.6
	c2.9,1.6,6.8,1.8,9.5,0.4c2.5-1.2,4.3-2.9,5.3-5.4c1-2.4,1-5.1-0.1-7.5c-0.7-1.6-1.8-3.1-3.3-4.1c-0.1-0.1-0.2-0.1-0.2-0.2
	c-0.5-0.3-0.9-0.6-1.4-1c-5.5-4.2-9.1-10.2-10-17c-0.9-6.4,0.6-12.8,4.2-18.1c-0.3,7.3,2.2,14.3,6.8,20.1c5,6.5,12,10.4,20.1,11.8
	c7.9,1.4,15.9,0.1,22.4-3.7c2.9-1.7,4.9-5,5.1-8c0.2-2.8-0.4-5.2-2-7.3C103.2,76.5,100.8,75.2,98.2,74.8z"/>
<path class="st0" d="M248.3,109V35.9h19.2V109H248.3z"/>
</svg>
